<svg xmlns="http://www.w3.org/2000/svg" viewBox="0 0 119.37 166.3"><defs><style>.cls-1{fill:#fff;}</style></defs><title>CWC</title><g id="Layer_2" data-name="Layer 2"><g id="Layer_1-2" data-name="Layer 1"><g id="_5lwrjv.tif" data-name="5lwrjv.tif"><path class="cls-1" d="M104.46,78l14.91-4.44c-5.48-19.66-10.86-38.91-16.32-58.45L44.1,31.63C43,28.29,42,25.5,40.91,22.35L9.69,30.87c.75,3.38,1.38,6.25,2.07,9.36L0,44c5.28,19.14,10.39,37.89,15.73,56.57.32,1.13,2.44,1.75,3.8,2.66l-4.38,1.23c-1.39-4.88-2.65-9.27-3.9-13.66l-.41.2v43.25c9.46-18.89,30.76-17,38.6-6L42,133.4c-7.75-5-14.62-4.6-19.12.9a11.28,11.28,0,0,0,1,15.36c4.76,4.61,11.2,4.69,16.69.12l-5.89-12c8.27-2.91,8.94-2.66,12.51,4.46l7.32,14.6c1.91-7.4,3.3-13.37,5.08-19.22a6.93,6.93,0,0,1,3.29-4c2.63-1.18,4.09.7,5.25,3,2.69,5.46,5.6,10.82,8.43,16.22,2.06-5.81,3.64-11.42,3.93-17.09.71-13.73,13.1-23.83,26.53-20.62,4.32,1,8.32,3.47,12.25,5.17V75.21L104.7,79ZM35.83,56.48C38.69,40.54,53,27.5,68.55,27.64,51.3,32.18,40.88,42.34,39.19,59.5c-1.67,16.85,6.62,28.68,21.27,36.55C42.68,89.89,32.75,73.68,35.83,56.48ZM71.58,88.09c-11.07.91-23.25-6.69-26-18.88,10.18,20.56,36.22,22,47.38,1.93C92.09,79.35,82.29,87.21,71.58,88.09Zm14.1,1.08c12.46-6.8,18.6-16.7,16.94-30.47C101.18,46.79,93.87,39.36,82.9,35c11.11.49,21.9,12.33,22.74,24.82C106.58,74,98,86.87,85.68,89.17Z"/><path class="cls-1" d="M119.34,0V65.24l-.63.13C113.91,48.2,109.1,31,104.2,13.5,84.29,19.08,64.71,24.57,44.9,30.14c-1-3.1-2-5.9-3.13-9.38L10.69,29.11V0Z"/><path class="cls-1" d="M119.16,123.71v21.08l-4.94-2.21c-8.93,6.2-15.24,6.69-20.18,1.51a11.41,11.41,0,0,1-.73-15c4.5-5.64,11.12-6,19.19-1Z"/><path class="cls-1" d="M119.14,150.43V166H83.87L87,151.43C97.93,159.16,108.46,159.28,119.14,150.43Z"/><path class="cls-1" d="M49,166.3H10.86V148.49c9,14.13,19.08,17.19,34.26,10.29Z"/><path class="cls-1" d="M73,166H61.7c1.13-4.47,2.25-8.89,3.75-14.86Z"/></g></g></g></svg>